PathFileType	4	(X/Y/Z)	../Python\running\Running07\task.trc
DataRate	CameraRate	NumFrames	NumMarkers	Units	OrigDataRate	OrigDataStartFrame	OrigNumFrames
200.000000	200.000000	4	30	mm	200.000000	154	177
Frame#	Time	C7			RBAK			CLAV			STRN			RASI			LASI			PE01			RTH1			RTH2			RTH3			RTB2			RHEE			RD5M			RTOE			LTH2			LTH3			LTB2			LTB3			LHEE			LTOE			LD5M			LPSI			RPSI			RTB1			RTB3			T10			PE03			PE02			LTH1			LTB1			
		X1	Y1	Z1	X2	Y2	Z2	X3	Y3	Z3	X4	Y4	Z4	X5	Y5	Z5	X6	Y6	Z6	X7	Y7	Z7	X8	Y8	Z8	X9	Y9	Z9	X10	Y10	Z10	X11	Y11	Z11	X12	Y12	Z12	X13	Y13	Z13	X14	Y14	Z14	X15	Y15	Z15	X16	Y16	Z16	X17	Y17	Z17	X18	Y18	Z18	X19	Y19	Z19	X20	Y20	Z20	X21	Y21	Z21	X22	Y22	Z22	X23	Y23	Z23	X24	Y24	Z24	X25	Y25	Z25	X26	Y26	Z26	X27	Y27	Z27	X28	Y28	Z28	X29	Y29	Z29	X30	Y30	Z30	

155	0.77	974.4790039062505	1374.088012695313	153.8379974365235	974.4774780273442	1295.666748046875	288.0489196777345	1087.323364257813	1281.659301757813	117.5978469848633	1129.002685546875	1093.502319335938	125.8151092529297	1060.835693359375	870.2471313476567	302.4113769531251	1081.9482421875	897.6511230468755	87.52684020996097	911.4695434570317	1001.081115722657	201.7546386718751	851.6662597656255	632.937438964844	307.1222229003907	833.5505981445317	557.3576660156252	289.5000915527345	882.057495117188	592.945739746094	305.1495666503907	637.7656250000002	375.7019042968751	263.6256408691407	477.4719848632815	267.1039123535157	164.0220947265626	484.537536621094	123.4045181274415	241.5358428955079	512.6131591796877	96.34217071533209	195.8043212890626	1089.2587890625	589.4521484375002	49.49711227416995	1143.958251953125	646.7789306640627	41.76940917968751	1209.2119140625	250.2773590087892	59.48409652709964	1236.642700195313	292.3821716308595	59.49866485595706	1235.24267578125	87.5876159667969	117.573844909668	1419.7587890625	92.1084899902344	121.3875732421876	1387.713012695313	66.05866241455081	75.00494384765628	891.8864746093755	970.8980102539067	155.4691467285157	894.9475097656255	974.3408203125005	241.2276306152345	699.7661743164065	375.7742309570314	265.4028320312501	638.5565185546877	326.2004699707032	254.0664367675782	921.5814819335942	1092.908203125	204.8657379150392	879.2166137695317	958.043823242188	161.9131469726563	870.9528808593755	950.1543579101567	210.9233856201173	1094.755004882813	649.395446777344	35.32041549682619	1184.823852539063	325.8431701660157	49.94058609008792	
156	0.775	991.5807495117192	1373.64599609375	152.8361358642579	992.0884399414067	1295.696044921875	287.430877685547	1104.144653320313	1281.287231445313	116.5662841796876	1145.936645507813	1093.926025390625	125.5895462036133	1078.3232421875	870.4951171875005	302.4472961425782	1098.810791015625	897.672973632813	87.76033020019534	928.5217285156255	1001.407348632813	201.4400939941407	870.8618774414067	631.5610961914065	307.4981689453126	853.415649414063	555.7182617187502	289.9570312500001	901.6560668945317	591.7834472656252	305.1233520507814	654.6488037109377	378.1757202148439	262.9569396972657	491.0390625000002	274.234344482422	161.7411193847657	495.2364196777346	131.5602264404297	240.8405303955079	522.8460083007815	103.329330444336	195.5558166503907	1104.912231445313	588.0884399414065	48.98719024658206	1159.89501953125	644.8063964843752	39.434627532959	1227.732421875	250.0442962646486	60.2778129577637	1254.644653320313	292.4859924316407	59.80655288696292	1256.237548828125	88.5380783081055	118.8701934814454	1440.714111328125	93.40861511230472	122.6485443115235	1408.703857421875	66.40870666503909	76.91865539550784	908.8762207031255	970.8998413085942	155.3959350585938	912.4057617187505	974.6464843750005	241.0470275878907	716.6448364257815	376.4653320312501	264.936981201172	654.0005493164065	328.6604003906251	253.008026123047	938.192504882813	1092.988403320313	204.3613433837892	896.4863281250005	957.9782104492192	161.9560546875001	888.4055786132817	950.262817382813	211.0424957275392	1110.562744140625	647.6853027343752	33.90514755249025	1202.20947265625	325.2049865722657	50.61461257934573	
157	0.78	1008.673583984375	1372.981811523438	151.8417358398438	1009.562133789063	1295.452270507813	286.7732849121095	1120.975952148438	1280.662963867188	115.6250686645508	1162.788940429688	1093.997314453125	125.4181594848633	1095.834228515625	870.6500854492192	302.4693908691407	1115.60498046875	897.3925781250005	87.86948394775393	945.4447631835942	1001.331787109375	200.9608764648439	890.5142211914067	629.7339477539065	308.0110168457032	873.660766601563	553.6802978515627	290.5068359375001	921.6804809570317	590.182556152344	305.0649719238282	671.9799804687502	380.478973388672	262.3179931640626	505.2485656738284	281.2694702148439	159.5694885253907	506.4894104003909	139.5651550292969	240.0759277343751	533.5847778320315	110.2575225830079	195.1939086914064	1120.894775390625	586.4983520507815	48.58398437500003	1176.080932617188	642.6467285156252	37.22192764282228	1245.420532226563	249.6511840820314	61.04986572265628	1272	292.2767639160157	60.19416427612308	1275.456665039063	89.1369323730469	120.162940979004	1459.767211914063	93.56010437011722	123.6665191650391	1427.7158203125	65.91504669189456	78.6369323730469	925.755737304688	970.473754882813	155.1831665039063	929.684448242188	974.562866210938	240.7112731933595	733.8901977539065	376.9863281250001	264.6311340332032	669.8692016601565	330.9850463867189	252.092987060547	954.7421264648442	1092.791137695313	203.7215118408204	913.6218872070317	957.432006835938	161.9135437011719	905.7149047851567	949.9768066406255	211.0897216796876	1126.612548828125	645.7322998046877	32.569637298584	1219.180053710938	324.5137023925782	51.26957321166995	
158	0.785	1025.75341796875	1372.100219726563	150.8532714843751	1026.899536132813	1294.95361328125	286.0741577148439	1137.8154296875	1279.796264648438	114.7714004516602	1179.559692382813	1093.708984375	125.2952346801758	1113.366943359375	870.6978149414067	302.4744262695314	1132.33935546875	896.8185424804692	87.8553161621094	962.2531127929692	1000.842834472657	200.3370361328126	910.5659179687505	627.507019042969	308.6765747070314	894.2278442382817	551.3018188476565	291.1709899902345	942.0656127929692	588.196960449219	305.0349731445314	689.7504882812502	382.6198730468751	261.7218017578126	520.1001586914065	288.1679077148439	157.5379943847657	518.3707275390627	147.3753051757813	239.2654266357423	544.9300537109377	117.0817260742188	194.7397003173829	1137.213256835938	584.7127075195315	48.30044555664065	1192.5205078125	640.343933105469	35.21770477294923	1262.278564453125	249.0292358398439	61.80639266967776	1288.714599609375	291.6955566406251	60.65904617309573	1292.944702148438	89.29184722900393	121.4445419311524	1476.990600585938	92.499870300293	124.530372619629	1444.823486328125	64.4889831542969	80.21522521972659	942.5349731445317	969.6191406250005	154.8452758789063	946.784057617188	974.0880737304692	240.2371520996095	751.4898681640627	377.3546752929689	264.4972534179689	686.1645507812502	333.1865234375001	251.3430480957032	971.2396850585942	1092.317993164063	202.9762115478517	930.6274414062505	956.4077148437505	161.7968902587891	922.8857421875005	949.2951049804692	211.0731048583986	1142.918334960938	643.583679199219	31.35799217224123	1235.727172851563	323.7122802734376	51.89848709106448	
